HIERARCHY
ROOT Hips
{
	OFFSET 0.000000 0.000000 0.000000
	CHANNELS 6 Xposition Yposition Zposition Zrotation Yrotation Xrotation 
	JOINT LHipJoint
	{
		OFFSET 0.000000 0.000000 0.000000
		CHANNELS 3 Zrotation Yrotation Xrotation
		JOINT LeftUpLeg
		{
			OFFSET 1.363060 -1.794630 0.839290
			CHANNELS 3 Zrotation Yrotation Xrotation
			JOINT LeftLeg
			{
				OFFSET 2.448110 -6.726130 0.000000
				CHANNELS 3 Zrotation Yrotation Xrotation
				JOINT LeftFoot
				{
					OFFSET 2.562200 -7.039590 0.000000
					CHANNELS 3 Zrotation Yrotation Xrotation
					JOINT LeftToeBase
					{
						OFFSET 0.157640 -0.433110 2.322550
						CHANNELS 3 Zrotation Yrotation Xrotation
						End Site
						{
							OFFSET 0.000000 0.000000 0.000000
						}
					}
				}
			}
		}
	}
	JOINT RHipJoint
	{
		OFFSET 0.000000 0.000000 0.000000
		CHANNELS 3 Zrotation Yrotation Xrotation
		JOINT RightUpLeg
		{
			OFFSET -1.305520 -1.794630 0.839290
			CHANNELS 3 Zrotation Yrotation Xrotation
			JOINT RightLeg
			{
				OFFSET -2.542530 -6.985550 0.000000
				CHANNELS 3 Zrotation Yrotation Xrotation
				JOINT RightFoot
				{
					OFFSET -2.568260 -7.056230 0.000000
					CHANNELS 3 Zrotation Yrotation Xrotation
					JOINT RightToeBase
					{
						OFFSET -0.164730 -0.452590 2.363150
						CHANNELS 3 Zrotation Yrotation Xrotation
						End Site
						{
							OFFSET 0.000000 0.000000 0.000000
						}
					}
				}
			}
		}
	}
	JOINT LowerBack
	{
		OFFSET 0.000000 0.000000 0.000000
		CHANNELS 3 Zrotation Yrotation Xrotation
		JOINT Spine
		{
			OFFSET 0.028270 2.035590 -0.193380
			CHANNELS 3 Zrotation Yrotation Xrotation
			JOINT Spine1
			{
				OFFSET 0.056720 2.048850 -0.042750
				CHANNELS 3 Zrotation Yrotation Xrotation
				JOINT Neck
				{
					OFFSET 0.000000 0.000000 0.000000
					CHANNELS 3 Zrotation Yrotation Xrotation
					JOINT Neck1
					{
						OFFSET -0.054170 1.746240 0.172020
						CHANNELS 3 Zrotation Yrotation Xrotation
						JOINT Head
						{
							OFFSET 0.104070 1.761360 -0.123970
							CHANNELS 3 Zrotation Yrotation Xrotation
							End Site
							{
								OFFSET 0.000000 0.000000 0.000000
							}
						}
					}
				}
				JOINT LeftShoulder
				{
					OFFSET 0.000000 0.000000 0.000000
					CHANNELS 3 Zrotation Yrotation Xrotation
					JOINT LeftArm
					{
						OFFSET 3.362410 1.200890 -0.311210
						CHANNELS 3 Zrotation Yrotation Xrotation
						JOINT LeftForeArm
						{
							OFFSET 4.983000 -0.000000 -0.000000
							CHANNELS 3 Zrotation Yrotation Xrotation
							JOINT LeftHand
							{
								OFFSET 3.483560 -0.000000 -0.000000
								CHANNELS 3 Zrotation Yrotation Xrotation
								JOINT LeftFingerBase
								{
									OFFSET 0.000000 0.000000 0.000000
									CHANNELS 3 Zrotation Yrotation Xrotation
									JOINT LeftHandIndex1
									{
										OFFSET 0.715260 -0.000000 -0.000000
										CHANNELS 3 Zrotation Yrotation Xrotation
										End Site
										{
											OFFSET 0.000000 0.000000 0.000000
										}
									}
								}
								JOINT LThumb
								{
									OFFSET 0.000000 0.000000 0.000000
									CHANNELS 3 Zrotation Yrotation Xrotation
									End Site
									{
										OFFSET 0.000000 0.000000 0.000000
									}
								}
							}
						}
					}
				}
				JOINT RightShoulder
				{
					OFFSET 0.000000 0.000000 0.000000
					CHANNELS 3 Zrotation Yrotation Xrotation
					JOINT RightArm
					{
						OFFSET -3.136600 1.374050 -0.404650
						CHANNELS 3 Zrotation Yrotation Xrotation
						JOINT RightForeArm
						{
							OFFSET -5.241900 -0.000000 -0.000000
							CHANNELS 3 Zrotation Yrotation Xrotation
							JOINT RightHand
							{
								OFFSET -3.444170 -0.000000 -0.000000
								CHANNELS 3 Zrotation Yrotation Xrotation
								JOINT RightFingerBase
								{
									OFFSET 0.000000 0.000000 0.000000
									CHANNELS 3 Zrotation Yrotation Xrotation
									JOINT RightHandIndex1
									{
										OFFSET -0.622530 -0.000000 -0.000000
										CHANNELS 3 Zrotation Yrotation Xrotation
										End Site
										{
											OFFSET 0.000000 0.000000 0.000000
										}
									}
								}
								JOINT RThumb
								{
									OFFSET 0.000000 0.000000 0.000000
									CHANNELS 3 Zrotation Yrotation Xrotation
									End Site
									{
										OFFSET 0.000000 0.000000 0.000000
									}
								}
							}
						}
					}
				}
			}
		}
	}
}
MOTION
Frames: 8
Frame Time: 0.008333
-11.828679 5.480312 -4.322812 105.632697 -0.975029 -25.939243 155.070929 80.378761 16.024787 -154.052422 75.447297 146.977898 136.360628 -89.796893 -98.950785 53.289575 -0.128115 -108.911973 0.885900 5.999900 16.784200 31.903017 -11.524230 103.728885 -169.469588 -7.751893 130.334833 -166.089441 5.719712 18.670380 -85.164475 -74.289548 -16.898369 -1.939400 8.738700 -24.981200 8.733985 -13.689527 -160.958078 -159.358792 39.623160 55.509669 33.757382 -33.216174 154.385901 37.221834 5.529197 -165.791077 43.715915 -89.998391 67.774609 -7.124800 10.682700 10.138100 -94.218921 23.921327 -122.379515 -124.133234 -63.089605 -129.032754 -19.510333 -63.257785 -7.037099 89.912808 -59.313133 168.890918 125.400045 -42.292993 179.855700 -7.125000 0.000000 0.000000 -18.311000 26.029100 8.851500 -61.550452 36.334624 -30.391263 40.612937 -40.368673 -149.499707 82.667564 -85.198752 -158.865634 -54.978773 -84.308965 -110.533798 113.243010 47.757782 -0.329824 7.125000 0.000000 0.000000 17.415100 -1.813800 17.701300 
-11.808163 5.474212 -4.322812 -60.806916 -36.371056 131.130670 46.974804 23.264405 71.745289 -156.899394 -65.903937 141.996214 -122.274314 48.079130 -66.242834 175.299572 -27.643795 -134.427084 0.852400 5.888200 16.460400 -91.043266 -72.624984 -86.893682 145.919357 -87.865843 -36.846389 4.643391 5.250648 34.550733 -175.136750 47.965533 -45.400577 -2.009900 8.886700 -25.441500 35.927640 -50.370764 116.378187 -68.325963 -11.172811 96.381443 -49.112272 -8.946702 122.044155 -28.519481 -52.513197 -98.774394 -73.298041 66.609629 -138.554707 -7.010900 10.631000 10.073300 94.059120 72.291469 5.846465 -99.545620 -18.633767 35.486951 -106.068158 -47.202325 -41.532389 -10.752963 -16.950766 -6.658834 -3.575898 -24.519752 -0.149499 -7.125000 0.000000 0.000000 -18.275800 25.952700 8.867300 -165.846546 -86.899531 -69.378839 4.214482 -45.644913 154.849384 72.318405 -21.377981 -160.739611 110.287360 -56.123449 87.621235 111.856978 -11.596611 -0.313200 7.125000 0.000000 0.000000 17.434000 -1.829700 17.717400 
-11.821748 5.476707 -4.319208 168.536046 -60.895724 112.681886 133.240548 -69.040025 158.956127 52.891088 -82.507931 -29.321959 36.695782 -30.185814 148.027306 -89.434805 -87.083484 -109.528674 0.869300 5.944800 16.624400 123.991958 18.443063 -61.032525 6.065880 3.611453 102.977343 -89.601747 70.946657 -92.889598 158.687111 -8.627024 -39.367992 -2.059900 8.989600 -25.762900 97.994293 33.798738 -31.830358 27.262872 -57.269441 -31.385141 -4.277987 -41.093192 168.818019 -29.017091 73.483191 -124.265468 -55.985006 31.096943 157.817150 -6.966300 10.590600 10.073600 -136.697207 -11.630764 53.510157 -18.181570 3.104039 -105.041357 -5.696802 -70.001009 2.477776 25.362770 -8.181349 7.897065 29.754962 -15.386479 -0.155499 -7.125000 0.000000 0.000000 -18.216900 25.935800 8.843400 113.503819 -67.511906 115.866556 -61.830703 45.958730 30.488962 -108.753803 -30.799466 -3.268812 76.287768 -25.819113 73.806679 67.390154 67.550750 -0.285799 7.125000 0.000000 0.000000 17.465900 -1.736400 17.783500 
-11.828956 5.477539 -4.315603 -87.877157 42.187455 -144.429002 -166.021518 45.978597 -154.456655 -156.710840 -83.019919 69.490904 97.658560 49.887316 38.872744 177.379424 -47.791168 105.239622 0.887700 6.005600 16.800700 -20.338217 45.787657 123.196604 128.122307 52.524587 -140.511250 121.416608 -0.094780 -17.668448 -62.627832 -42.731552 62.482619 -2.079400 9.029500 -25.887800 141.074221 36.057553 55.106996 147.840456 63.055919 -129.659777 -154.607372 30.700165 114.003841 -122.208624 -70.033533 -11.871934 22.791052 -31.797777 -29.354940 -7.144300 10.582700 10.077700 -81.891026 -24.331061 -171.496296 19.576203 -61.144928 148.926524 -17.134564 -64.227991 -18.423398 -16.618728 -40.297298 -39.208525 26.748889 -44.682659 -0.159299 -7.125000 0.000000 0.000000 -18.163300 25.981100 8.794300 114.421423 28.865418 -144.222925 -35.425891 -20.174014 -80.311758 -123.420200 -83.857114 -154.649657 120.611324 -71.144176 62.852703 134.032982 12.586832 -0.305300 7.125000 0.000000 0.000000 17.443800 -1.697300 17.771400 
-11.828124 5.474767 -4.315326 145.473369 2.750299 -48.442592 84.225111 40.370582 109.059795 -55.890011 26.077567 -0.305046 -147.750601 -40.984040 -114.526523 -130.169446 29.613700 -41.763096 0.849000 5.876600 16.426700 172.289935 -35.714920 -51.052722 68.665169 -69.723828 -163.429193 -136.026275 61.544233 -70.297867 -141.626718 -46.546236 93.842308 -2.083400 9.037800 -25.913500 87.590704 74.563582 -162.170877 -116.467414 74.367253 130.713093 -162.245605 37.608675 -0.130318 87.188003 82.273839 15.279907 -136.450969 66.009376 98.917054 -7.329000 10.601700 10.096900 -113.292766 -51.936400 145.599458 -67.705533 54.478612 -164.001253 -69.977106 81.167385 165.769812 -85.862893 -19.081230 48.957107 -66.290654 -35.101048 -0.146999 -7.125000 0.000000 0.000000 -18.287900 26.008100 8.848600 56.364566 2.876610 -20.477685 119.874759 14.886638 75.804763 -23.400272 -64.402719 -173.078117 85.138330 -41.991748 98.563576 95.446419 11.889969 -0.348500 7.125000 0.000000 0.000000 17.394000 -1.750500 17.698200 
-11.810658 5.470608 -4.320594 10.333608 18.225335 -107.099573 161.041595 -29.493334 160.760399 -69.233329 68.478486 -122.886559 114.760390 -1.477122 40.666707 -50.522966 19.346822 21.047509 0.870400 5.948400 16.634700 91.618086 1.720470 3.509761 79.575019 -29.301718 -61.185517 -85.045542 5.746201 175.925766 -148.265468 0.520820 -2.377663 -2.019200 8.906100 -25.501900 -161.147253 87.436060 147.180157 -172.938964 -52.181182 84.136679 69.672493 43.800138 39.468969 -24.890127 14.725742 -113.302796 94.822520 -58.887974 -41.540360 -7.182200 10.545200 10.141800 125.660111 27.013633 -146.807534 -88.195970 -12.310523 -149.325937 49.700863 75.104816 -71.742077 113.971412 -74.598862 -158.160603 -87.175215 -41.775134 -0.136600 -7.125000 0.000000 0.000000 -18.392200 26.036600 8.891400 -131.956875 23.068320 -170.305704 -167.659016 -12.461965 37.134813 45.743794 -52.672461 -5.273976 83.352360 13.830912 59.173223 88.746757 80.481657 -0.355500 7.125000 0.000000 0.000000 17.385900 -1.768700 17.683200 
-11.809826 5.472826 -4.321425 -178.985300 4.207295 156.294917 -81.562701 -43.529766 37.049852 -86.478291 -56.351939 -10.096949 -19.804602 35.493217 126.955010 43.047063 -54.689808 115.161123 0.916700 6.100500 17.076200 -125.085135 -2.139444 77.768496 -141.222569 -2.963575 5.066790 -136.354849 16.135012 -43.469254 119.449703 60.915170 -171.871343 -1.939800 8.739600 -24.984000 66.369307 80.610843 3.611640 -152.195254 -73.530596 -39.647279 -150.245857 61.012462 35.426201 76.209033 -62.182550 174.356171 13.225650 54.642474 -65.281696 -7.056000 10.487500 10.208800 -52.913489 50.632731 40.776607 -46.017597 11.097060 146.070287 140.151503 -67.246515 25.734130 -25.065656 79.639587 -9.806436 -91.832897 15.334812 -0.143999 -7.125000 0.000000 0.000000 -18.309500 26.045100 8.843400 139.840549 -53.313084 -26.356544 107.152972 17.110350 -173.434424 -70.088890 59.954521 -173.021773 62.537972 -45.068573 14.782434 74.088151 66.749419 -0.368300 7.125000 0.000000 0.000000 17.371100 -1.769400 17.666500 
-11.815094 5.474212 -4.321703 -15.018772 -61.509912 42.762593 -111.211157 49.080583 -18.259648 156.025893 -10.802964 -159.403193 138.516774 -3.501659 -116.994528 -151.062651 70.910926 84.860160 0.919000 6.107800 17.097500 -104.083339 -6.310608 117.872789 151.950009 -39.862560 153.884040 -162.783346 -81.959221 106.538394 -43.960911 62.412986 -12.509532 -1.893900 8.641400 -24.679900 96.704749 -4.635722 -10.941229 -61.176321 3.709249 -31.036825 166.185832 85.541562 -133.624273 -147.371561 -62.002928 -30.714180 168.881210 41.093410 -4.964709 -7.030500 10.434600 10.161100 147.113574 -73.702201 -146.295576 -64.219116 4.730643 176.612168 8.037121 -59.779366 5.916306 155.526374 66.609377 174.897739 -77.428549 63.193828 -0.146599 -7.125000 0.000000 0.000000 -18.297600 25.985200 8.864200 -83.604270 -81.826611 -176.565769 -78.732440 -46.497794 2.638643 7.861686 22.466451 149.408863 25.192785 -25.961544 -16.767606 39.751406 79.753205 -0.391001 7.125000 0.000000 0.000000 17.345100 -1.768500 17.637600 
